<?xml version="1.0" encoding="UTF-8"?>
<!DOCTYPE svg PUBLIC "-//W3C//DTD SVG 1.1//EN" "http://www.w3.org/Graphics/SVG/1.1/DTD/svg11.dtd">
<svg xmlns="http://www.w3.org/2000/svg" version="1.1" width="500px" height="500px" style="shape-rendering:geometricPrecision; text-rendering:geometricPrecision; image-rendering:optimizeQuality; fill-rule:evenodd; clip-rule:evenodd" xmlns:xlink="http://www.w3.org/1999/xlink">
<g><path style="opacity:1" fill="#000000" d="M -0.5,-0.5 C 166.167,-0.5 332.833,-0.5 499.5,-0.5C 499.5,123.167 499.5,246.833 499.5,370.5C 495.751,362.259 489.418,357.092 480.5,355C 470.172,354.5 459.839,354.334 449.5,354.5C 449.5,357.167 449.5,359.833 449.5,362.5C 461.601,362.041 473.601,362.541 485.5,364C 493.461,370.756 494.628,378.589 489,387.5C 486.749,389.377 484.249,390.877 481.5,392C 354.833,392.667 228.167,392.667 101.5,392C 86.3019,389.135 76.4686,380.302 72,365.5C 71.0769,355.426 71.4103,345.426 73,335.5C 77.8229,324.508 85.9896,317.341 97.5,314C 145.833,313.667 194.167,313.333 242.5,313C 246.862,311.628 250.362,309.128 253,305.5C 254.37,299.258 254.87,292.925 254.5,286.5C 252.167,286.5 249.833,286.5 247.5,286.5C 247.666,291.511 247.499,296.511 247,301.5C 246.07,303.552 244.57,305.052 242.5,306C 193.833,306.333 145.167,306.667 96.5,307C 74.5692,314.115 63.5692,329.282 63.5,352.5C 63.4417,377.935 75.775,393.435 100.5,399C 227.167,399.667 353.833,399.667 480.5,399C 490.232,397.172 496.566,391.672 499.5,382.5C 499.5,421.5 499.5,460.5 499.5,499.5C 332.833,499.5 166.167,499.5 -0.5,499.5C -0.5,379.167 -0.5,258.833 -0.5,138.5C 2.53045,147.366 8.53045,153.533 17.5,157C 26.8274,157.5 36.1607,157.666 45.5,157.5C 45.5,155.167 45.5,152.833 45.5,150.5C 36.8269,150.666 28.1603,150.5 19.5,150C 10.1833,146.846 5.85001,140.346 6.5,130.5C 6.56408,118.604 12.2307,110.771 23.5,107C 151.167,106.333 278.833,106.333 406.5,107C 424.089,108.921 435.256,118.421 440,135.5C 442.914,152.426 438.081,166.593 425.5,178C 419.607,181.409 413.274,183.409 406.5,184C 359.167,184.333 311.833,184.667 264.5,185C 257.481,187.351 252.314,191.851 249,198.5C 247.586,207.418 247.086,216.418 247.5,225.5C 249.833,225.5 252.167,225.5 254.5,225.5C 254.334,217.826 254.5,210.159 255,202.5C 257.167,197.667 260.667,194.167 265.5,192C 313.167,191.667 360.833,191.333 408.5,191C 425.357,189.474 437.19,180.974 444,165.5C 449.574,148.856 448.24,132.856 440,117.5C 432.035,107.101 421.535,101.267 408.5,100C 279.5,99.3333 150.5,99.3333 21.5,100C 10.7191,103.285 3.3858,110.119 -0.5,120.5C -0.5,80.1667 -0.5,39.8333 -0.5,-0.5 Z"/></g>
<g><path style="opacity:1" fill="#dad7ce" d="M -0.5,138.5 C -0.5,132.5 -0.5,126.5 -0.5,120.5C 3.3858,110.119 10.7191,103.285 21.5,100C 150.5,99.3333 279.5,99.3333 408.5,100C 421.535,101.267 432.035,107.101 440,117.5C 448.24,132.856 449.574,148.856 444,165.5C 437.19,180.974 425.357,189.474 408.5,191C 360.833,191.333 313.167,191.667 265.5,192C 260.667,194.167 257.167,197.667 255,202.5C 254.5,210.159 254.334,217.826 254.5,225.5C 252.167,225.5 249.833,225.5 247.5,225.5C 247.086,216.418 247.586,207.418 249,198.5C 252.314,191.851 257.481,187.351 264.5,185C 311.833,184.667 359.167,184.333 406.5,184C 413.274,183.409 419.607,181.409 425.5,178C 438.081,166.593 442.914,152.426 440,135.5C 435.256,118.421 424.089,108.921 406.5,107C 278.833,106.333 151.167,106.333 23.5,107C 12.2307,110.771 6.56408,118.604 6.5,130.5C 5.85001,140.346 10.1833,146.846 19.5,150C 28.1603,150.5 36.8269,150.666 45.5,150.5C 45.5,152.833 45.5,155.167 45.5,157.5C 36.1607,157.666 26.8274,157.5 17.5,157C 8.53045,153.533 2.53045,147.366 -0.5,138.5 Z"/></g>
<g><path style="opacity:1" fill="#e9e9e0" d="M 126.5,136.5 C 126.815,140.371 126.482,144.038 125.5,147.5C 122.538,138.513 116.538,136.013 107.5,140C 100.954,147.296 99.7869,155.463 104,164.5C 111.56,172.356 119.226,172.356 127,164.5C 127.5,165 128,165.5 128.5,166C 118.474,176.107 108.641,175.94 99,165.5C 93.3941,153.314 96.2275,143.814 107.5,137C 113.065,134.818 118.398,135.318 123.5,138.5C 124.265,137.388 125.265,136.721 126.5,136.5 Z"/></g>
<g><path style="opacity:1" fill="#747470" d="M 126.5,136.5 C 127.809,140.351 127.809,144.351 126.5,148.5C 125.893,148.376 125.56,148.043 125.5,147.5C 126.482,144.038 126.815,140.371 126.5,136.5 Z"/></g>
<g><path style="opacity:1" fill="#e7e7df" d="M 239.5,135.5 C 244.489,135.04 249.156,136.04 253.5,138.5C 254.167,137.833 254.833,137.167 255.5,136.5C 256.833,140.167 256.833,143.833 255.5,147.5C 252.193,138.683 246.193,136.183 237.5,140C 231.833,145.319 229.999,151.819 232,159.5C 237.498,171.801 245.665,173.801 256.5,165.5C 257.282,167.329 256.616,168.829 254.5,170C 241.703,176.837 232.536,173.67 227,160.5C 224.316,148.534 228.483,140.201 239.5,135.5 Z"/></g>
<g><path style="opacity:1" fill="#e9e9e0" d="M 374.5,136.5 C 374.815,140.371 374.482,144.038 373.5,147.5C 370.538,138.513 364.538,136.013 355.5,140C 348.954,147.296 347.787,155.463 352,164.5C 359.56,172.356 367.226,172.356 375,164.5C 375.5,165 376,165.5 376.5,166C 366.474,176.107 356.641,175.94 347,165.5C 341.394,153.314 344.227,143.814 355.5,137C 361.065,134.818 366.398,135.318 371.5,138.5C 372.265,137.388 373.265,136.721 374.5,136.5 Z"/></g>
<g><path style="opacity:1" fill="#747470" d="M 374.5,136.5 C 375.809,140.351 375.809,144.351 374.5,148.5C 373.893,148.376 373.56,148.043 373.5,147.5C 374.482,144.038 374.815,140.371 374.5,136.5 Z"/></g>
<g><path style="opacity:1" fill="#edede5" d="M 70.5,155.5 C 67.7131,154.523 64.7131,154.19 61.5,154.5C 61.1786,160.026 61.5119,165.36 62.5,170.5C 67.2675,170.809 71.9342,170.309 76.5,169C 77.9278,167.084 78.9278,164.917 79.5,162.5C 80.487,165.768 80.8204,169.102 80.5,172.5C 71.8078,172.831 63.1411,172.498 54.5,171.5C 55.2421,170.713 56.0754,170.047 57,169.5C 57.4998,159.172 57.6665,148.839 57.5,138.5C 56.0222,138.762 54.6888,138.429 53.5,137.5C 61.8068,136.502 70.1401,136.169 78.5,136.5C 78.6646,139.518 78.498,142.518 78,145.5C 77.5943,142.506 76.0943,140.339 73.5,139C 70.1667,138.333 66.8333,138.333 63.5,139C 62.5333,143.401 62.2,147.901 62.5,152.5C 65.5,152.5 68.5,152.5 71.5,152.5C 71.238,151.022 71.5713,149.689 72.5,148.5C 73.8333,152.167 73.8333,155.833 72.5,159.5C 71.8281,158.051 71.1614,156.718 70.5,155.5 Z"/></g>
<g><path style="opacity:1" fill="#f9f9f0" d="M 167.5,162.5 C 168.479,165.625 168.813,168.958 168.5,172.5C 160.14,172.831 151.807,172.498 143.5,171.5C 144.993,170.859 145.993,169.859 146.5,168.5C 147.494,158.681 147.827,148.681 147.5,138.5C 146.167,138.5 144.833,138.5 143.5,138.5C 145.048,137.206 147.048,136.539 149.5,136.5C 151.5,136.833 153.5,137.167 155.5,137.5C 154.372,138.262 153.205,138.929 152,139.5C 151.5,149.828 151.334,160.161 151.5,170.5C 156.267,170.809 160.934,170.309 165.5,169C 167.016,167.103 167.683,164.936 167.5,162.5 Z"/></g>
<g><path style="opacity:1" fill="#f4f4ec" d="M 192.5,140.5 C 191.515,144.634 191.182,148.968 191.5,153.5C 195.042,153.813 198.375,153.479 201.5,152.5C 201.238,151.022 201.571,149.689 202.5,148.5C 203.833,152.167 203.833,155.833 202.5,159.5C 201.85,157.816 200.85,156.483 199.5,155.5C 197.052,154.527 194.385,154.194 191.5,154.5C 191.179,160.026 191.512,165.36 192.5,170.5C 197.267,170.809 201.934,170.309 206.5,169C 207.723,166.948 208.723,164.781 209.5,162.5C 210.487,165.768 210.82,169.102 210.5,172.5C 201.475,172.832 192.475,172.498 183.5,171.5C 184.602,170.824 185.602,170.158 186.5,169.5C 187.494,159.347 187.828,149.014 187.5,138.5C 186.167,138.5 184.833,138.5 183.5,138.5C 191.433,136.532 199.766,135.865 208.5,136.5C 208.817,139.572 208.484,142.572 207.5,145.5C 206.702,143.922 206.202,142.256 206,140.5C 202.067,138.522 197.9,138.022 193.5,139C 192.944,139.383 192.611,139.883 192.5,140.5 Z"/></g>
<g><path style="opacity:1" fill="#e8e8e0" d="M 271.5,136.5 C 281.5,136.5 291.5,136.5 301.5,136.5C 301.665,140.182 301.499,143.848 301,147.5C 300.522,140.187 296.689,137.187 289.5,138.5C 289.5,149.167 289.5,159.833 289.5,170.5C 290.978,170.238 292.311,170.571 293.5,171.5C 289.5,172.833 285.5,172.833 281.5,171.5C 282.242,170.713 283.075,170.047 284,169.5C 284.5,159.172 284.666,148.839 284.5,138.5C 277.084,136.913 273.084,139.913 272.5,147.5C 271.511,143.893 271.177,140.226 271.5,136.5 Z"/></g>
<g><path style="opacity:1" fill="#f8f8ef" d="M 325.5,140.5 C 324.506,150.319 324.173,160.319 324.5,170.5C 325.833,170.5 327.167,170.5 328.5,170.5C 326.952,171.794 324.952,172.461 322.5,172.5C 320.5,172.167 318.5,171.833 316.5,171.5C 317.602,170.824 318.602,170.158 319.5,169.5C 320.494,159.347 320.828,149.014 320.5,138.5C 319.167,138.5 317.833,138.5 316.5,138.5C 318.048,137.206 320.048,136.539 322.5,136.5C 324.5,136.833 326.5,137.167 328.5,137.5C 327.23,138.288 326.23,139.288 325.5,140.5 Z"/></g>
<g><path style="opacity:1" fill="#676763" d="M 143.5,138.5 C 144.833,138.5 146.167,138.5 147.5,138.5C 147.827,148.681 147.494,158.681 146.5,168.5C 146.5,158.833 146.5,149.167 146.5,139.5C 145.209,139.737 144.209,139.404 143.5,138.5 Z"/></g>
<g><path style="opacity:1" fill="#2e2e2d" d="M 183.5,138.5 C 184.833,138.5 186.167,138.5 187.5,138.5C 187.828,149.014 187.494,159.347 186.5,169.5C 186.5,159.5 186.5,149.5 186.5,139.5C 185.209,139.737 184.209,139.404 183.5,138.5 Z"/></g>
<g><path style="opacity:1" fill="#2e2e2d" d="M 316.5,138.5 C 317.833,138.5 319.167,138.5 320.5,138.5C 320.828,149.014 320.494,159.347 319.5,169.5C 319.5,159.5 319.5,149.5 319.5,139.5C 318.209,139.737 317.209,139.404 316.5,138.5 Z"/></g>
<g><path style="opacity:1" fill="#484846" d="M 325.5,140.5 C 325.5,150.167 325.5,159.833 325.5,169.5C 326.791,169.263 327.791,169.596 328.5,170.5C 327.167,170.5 325.833,170.5 324.5,170.5C 324.173,160.319 324.506,150.319 325.5,140.5 Z"/></g>
<g><path style="opacity:1" fill="#858580" d="M 192.5,140.5 C 192.5,144.5 192.5,148.5 192.5,152.5C 195.5,152.5 198.5,152.5 201.5,152.5C 198.375,153.479 195.042,153.813 191.5,153.5C 191.182,148.968 191.515,144.634 192.5,140.5 Z"/></g>
<g><path style="opacity:1" fill="#7b7b76" d="M 70.5,155.5 C 67.8333,155.5 65.1667,155.5 62.5,155.5C 62.5,160.5 62.5,165.5 62.5,170.5C 61.5119,165.36 61.1786,160.026 61.5,154.5C 64.7131,154.19 67.7131,154.523 70.5,155.5 Z"/></g>
<g><path style="opacity:1" fill="#4a4a47" d="M 199.5,155.5 C 197.167,155.5 194.833,155.5 192.5,155.5C 192.5,160.5 192.5,165.5 192.5,170.5C 191.512,165.36 191.179,160.026 191.5,154.5C 194.385,154.194 197.052,154.527 199.5,155.5 Z"/></g>
<g><path style="opacity:1" fill="#989892" d="M 167.5,162.5 C 167.56,161.957 167.893,161.624 168.5,161.5C 169.808,165.315 169.808,168.981 168.5,172.5C 168.813,168.958 168.479,165.625 167.5,162.5 Z"/></g>
<g><path style="opacity:1" fill="#d1cec5" d="M 169.5,226.5 C 173.138,225.737 174.638,227.07 174,230.5C 171.459,233.522 168.293,235.022 164.5,235C 163.549,234.282 163.383,233.449 164,232.5C 166.04,230.63 167.873,228.63 169.5,226.5 Z"/></g>
<g><path style="opacity:1" fill="#d8d5cc" d="M 250.5,237.5 C 251.833,237.5 253.167,237.5 254.5,237.5C 258.225,247.836 262.058,258.17 266,268.5C 266.71,269.973 267.876,270.64 269.5,270.5C 269.5,271.833 269.5,273.167 269.5,274.5C 264.833,274.5 260.167,274.5 255.5,274.5C 255.715,272.226 256.382,270.059 257.5,268C 257.355,266.774 257.022,265.607 256.5,264.5C 252.878,263.341 249.211,263.175 245.5,264C 244.331,266.007 243.665,268.173 243.5,270.5C 244.5,270.5 245.5,270.5 246.5,270.5C 246.5,271.833 246.5,273.167 246.5,274.5C 242.833,274.5 239.167,274.5 235.5,274.5C 241.045,262.565 246.045,250.232 250.5,237.5 Z"/></g>
<g><path style="opacity:1" fill="#d6d2ca" d="M 363.5,238.5 C 363.5,242.167 363.5,245.833 363.5,249.5C 362.5,249.5 361.5,249.5 360.5,249.5C 358.583,243.013 354.249,240.513 347.5,242C 342.943,245.279 340.61,249.779 340.5,255.5C 340.57,267.919 346.57,272.919 358.5,270.5C 358.5,267.167 358.5,263.833 358.5,260.5C 357.167,260.5 355.833,260.5 354.5,260.5C 354.5,259.167 354.5,257.833 354.5,256.5C 359.167,256.5 363.833,256.5 368.5,256.5C 368.5,257.833 368.5,259.167 368.5,260.5C 367.5,260.5 366.5,260.5 365.5,260.5C 365.5,264.5 365.5,268.5 365.5,272.5C 360.321,273.392 355.155,274.392 350,275.5C 339.03,274.196 333.196,268.03 332.5,257C 332.723,245.445 338.556,238.945 350,237.5C 353.387,237.796 356.554,238.796 359.5,240.5C 360.524,239.147 361.857,238.48 363.5,238.5 Z"/></g>
<g><path style="opacity:1" fill="#5d5b57" d="M 363.5,238.5 C 364.483,242.298 364.817,246.298 364.5,250.5C 362.901,250.768 361.568,250.434 360.5,249.5C 361.5,249.5 362.5,249.5 363.5,249.5C 363.5,245.833 363.5,242.167 363.5,238.5 Z"/></g>
<g><path style="opacity:1" fill="#d8d4cc" d="M 92.5,238.5 C 96.5546,238.176 100.555,238.509 104.5,239.5C 107.902,248.207 111.402,256.873 115,265.5C 118.333,256.833 121.667,248.167 125,239.5C 129.066,238.536 133.233,238.203 137.5,238.5C 137.5,239.833 137.5,241.167 137.5,242.5C 134.05,242.573 132.717,244.406 133.5,248C 134.332,255.477 134.665,262.977 134.5,270.5C 135.5,270.5 136.5,270.5 137.5,270.5C 137.5,271.833 137.5,273.167 137.5,274.5C 132.833,274.5 128.167,274.5 123.5,274.5C 123.5,273.167 123.5,271.833 123.5,270.5C 124.822,270.67 125.989,270.337 127,269.5C 127.848,262.101 127.515,254.767 126,247.5C 122.863,256.577 119.53,265.577 116,274.5C 113.224,276.14 111.224,275.473 110,272.5C 106.209,264.46 103.209,256.127 101,247.5C 100.5,255.159 100.334,262.826 100.5,270.5C 101.833,270.5 103.167,270.5 104.5,270.5C 104.5,271.833 104.5,273.167 104.5,274.5C 100.5,274.5 96.5,274.5 92.5,274.5C 92.5,273.167 92.5,271.833 92.5,270.5C 93.8221,270.67 94.9887,270.337 96,269.5C 96.4998,260.506 96.6664,251.506 96.5,242.5C 95.1667,242.5 93.8333,242.5 92.5,242.5C 92.5,241.167 92.5,239.833 92.5,238.5 Z"/></g>
<g><path style="opacity:1" fill="#d6d2c9" d="M 173.5,249.5 C 173.5,253.5 173.5,257.5 173.5,261.5C 172.5,261.5 171.5,261.5 170.5,261.5C 169.878,258.224 167.878,256.891 164.5,257.5C 164.5,261.833 164.5,266.167 164.5,270.5C 168.308,270.837 171.974,270.337 175.5,269C 176.861,267.416 177.528,265.582 177.5,263.5C 178.5,263.5 179.5,263.5 180.5,263.5C 180.5,267.167 180.5,270.833 180.5,274.5C 171.5,274.5 162.5,274.5 153.5,274.5C 153.5,273.167 153.5,271.833 153.5,270.5C 154.5,270.5 155.5,270.5 156.5,270.5C 156.5,261.167 156.5,251.833 156.5,242.5C 155.5,242.5 154.5,242.5 153.5,242.5C 153.5,241.167 153.5,239.833 153.5,238.5C 162.167,238.5 170.833,238.5 179.5,238.5C 179.5,241.833 179.5,245.167 179.5,248.5C 178.167,248.5 176.833,248.5 175.5,248.5C 175.822,246.278 175.155,244.444 173.5,243C 170.833,242.333 168.167,242.333 165.5,243C 164.54,246.73 164.207,250.563 164.5,254.5C 166.5,254.5 168.5,254.5 170.5,254.5C 170.5,252.833 170.5,251.167 170.5,249.5C 171.5,249.5 172.5,249.5 173.5,249.5 Z"/></g>
<g><path style="opacity:1" fill="#d6d2ca" d="M 195.5,238.5 C 200.5,238.5 205.5,238.5 210.5,238.5C 210.5,239.833 210.5,241.167 210.5,242.5C 209.5,242.5 208.5,242.5 207.5,242.5C 207.5,251.833 207.5,261.167 207.5,270.5C 214.958,272.571 219.291,269.904 220.5,262.5C 221.5,262.5 222.5,262.5 223.5,262.5C 223.5,266.5 223.5,270.5 223.5,274.5C 214.5,274.5 205.5,274.5 196.5,274.5C 196.275,272.284 197.108,270.617 199,269.5C 199.5,260.506 199.666,251.506 199.5,242.5C 198.167,242.5 196.833,242.5 195.5,242.5C 195.5,241.167 195.5,239.833 195.5,238.5 Z"/></g>
<g><path style="opacity:1" fill="#d7d3cb" d="M 282.5,238.5 C 285.518,238.335 288.518,238.502 291.5,239C 297.546,246.924 303.713,254.757 310,262.5C 310.5,255.842 310.666,249.175 310.5,242.5C 309.167,242.5 307.833,242.5 306.5,242.5C 306.5,241.167 306.5,239.833 306.5,238.5C 310.5,238.5 314.5,238.5 318.5,238.5C 318.5,239.833 318.5,241.167 318.5,242.5C 317.178,242.33 316.011,242.663 315,243.5C 314.5,254.161 314.333,264.828 314.5,275.5C 311.675,275.919 309.509,274.919 308,272.5C 302.909,265.32 297.576,258.32 292,251.5C 291.5,257.825 291.334,264.158 291.5,270.5C 292.5,270.5 293.5,270.5 294.5,270.5C 294.5,271.833 294.5,273.167 294.5,274.5C 290.833,274.5 287.167,274.5 283.5,274.5C 283.5,273.167 283.5,271.833 283.5,270.5C 284.5,270.5 285.5,270.5 286.5,270.5C 286.5,261.167 286.5,251.833 286.5,242.5C 285.167,242.5 283.833,242.5 282.5,242.5C 282.5,241.167 282.5,239.833 282.5,238.5 Z"/></g>
<g><path style="opacity:1" fill="#dbd7cf" d="M 394.5,243.5 C 393.518,246.962 393.185,250.629 393.5,254.5C 395.735,254.795 397.735,254.461 399.5,253.5C 399.5,252.167 399.5,250.833 399.5,249.5C 400.833,249.5 402.167,249.5 403.5,249.5C 403.5,253.833 403.5,258.167 403.5,262.5C 402.5,262.5 401.5,262.5 400.5,262.5C 400.771,260.62 400.104,259.287 398.5,258.5C 397.081,257.549 395.415,257.216 393.5,257.5C 393.182,262.032 393.515,266.366 394.5,270.5C 397.518,270.665 400.518,270.498 403.5,270C 405.919,268.491 406.919,266.325 406.5,263.5C 407.5,263.5 408.5,263.5 409.5,263.5C 409.5,267.167 409.5,270.833 409.5,274.5C 400.5,274.5 391.5,274.5 382.5,274.5C 382.5,273.167 382.5,271.833 382.5,270.5C 383.822,270.67 384.989,270.337 386,269.5C 386.5,260.506 386.666,251.506 386.5,242.5C 385.167,242.5 383.833,242.5 382.5,242.5C 382.5,241.167 382.5,239.833 382.5,238.5C 391.167,238.5 399.833,238.5 408.5,238.5C 408.5,241.833 408.5,245.167 408.5,248.5C 407.5,248.5 406.5,248.5 405.5,248.5C 405.607,246.097 404.607,244.264 402.5,243C 399.633,242.199 396.966,242.366 394.5,243.5 Z"/></g>
<g><path style="opacity:1" fill="#575652" d="M 394.5,243.5 C 394.5,246.833 394.5,250.167 394.5,253.5C 396.167,253.5 397.833,253.5 399.5,253.5C 397.735,254.461 395.735,254.795 393.5,254.5C 393.185,250.629 393.518,246.962 394.5,243.5 Z"/></g>
<g><path style="opacity:1" fill="#83817b" d="M 173.5,249.5 C 174.485,253.634 174.818,257.968 174.5,262.5C 172.901,262.768 171.568,262.434 170.5,261.5C 171.5,261.5 172.5,261.5 173.5,261.5C 173.5,257.5 173.5,253.5 173.5,249.5 Z"/></g>
<g><path style="opacity:1" fill="#1b1b1a" d="M 250.5,247.5 C 252.204,251.617 253.537,255.951 254.5,260.5C 251.753,260.813 249.086,260.48 246.5,259.5C 248.044,255.535 249.377,251.535 250.5,247.5 Z"/></g>
<g><path style="opacity:1" fill="#4b4a47" d="M 398.5,258.5 C 397.167,258.5 395.833,258.5 394.5,258.5C 394.5,262.5 394.5,266.5 394.5,270.5C 393.515,266.366 393.182,262.032 393.5,257.5C 395.415,257.216 397.081,257.549 398.5,258.5 Z"/></g>
<g><path style="opacity:1" fill="#d9d5cc" d="M 499.5,370.5 C 499.5,374.5 499.5,378.5 499.5,382.5C 496.566,391.672 490.232,397.172 480.5,399C 353.833,399.667 227.167,399.667 100.5,399C 75.775,393.435 63.4417,377.935 63.5,352.5C 63.5692,329.282 74.5692,314.115 96.5,307C 145.167,306.667 193.833,306.333 242.5,306C 244.57,305.052 246.07,303.552 247,301.5C 247.499,296.511 247.666,291.511 247.5,286.5C 249.833,286.5 252.167,286.5 254.5,286.5C 254.87,292.925 254.37,299.258 253,305.5C 250.362,309.128 246.862,311.628 242.5,313C 194.167,313.333 145.833,313.667 97.5,314C 85.9896,317.341 77.8229,324.508 73,335.5C 71.4103,345.426 71.0769,355.426 72,365.5C 76.4686,380.302 86.3019,389.135 101.5,392C 228.167,392.667 354.833,392.667 481.5,392C 484.249,390.877 486.749,389.377 489,387.5C 494.628,378.589 493.461,370.756 485.5,364C 473.601,362.541 461.601,362.041 449.5,362.5C 449.5,359.833 449.5,357.167 449.5,354.5C 459.839,354.334 470.172,354.5 480.5,355C 489.418,357.092 495.751,362.259 499.5,370.5 Z"/></g>
<g><path style="opacity:1" fill="#e4e4dc" d="M 257.5,340.5 C 261.306,340.412 264.972,341.079 268.5,342.5C 269.736,341.754 271.07,341.421 272.5,341.5C 272.823,345.226 272.489,348.893 271.5,352.5C 269.793,344.812 265.126,341.979 257.5,344C 253.633,347.249 253.633,350.582 257.5,354C 263.251,356.289 268.418,359.455 273,363.5C 275.937,371.126 273.437,375.959 265.5,378C 261.628,378.891 257.962,378.391 254.5,376.5C 253.264,377.246 251.93,377.579 250.5,377.5C 250.177,373.774 250.511,370.107 251.5,366.5C 253.056,373.601 257.389,376.768 264.5,376C 269.038,374.336 270.538,371.169 269,366.5C 264.084,362.957 258.917,359.79 253.5,357C 248.602,349.85 249.935,344.35 257.5,340.5 Z"/></g>
<g><path style="opacity:1" fill="#e8e8df" d="M 348.5,341.5 C 348.815,345.371 348.482,349.038 347.5,352.5C 344.538,343.513 338.538,341.013 329.5,345C 323.788,350.669 321.955,357.503 324,365.5C 327.694,375.421 334.527,378.255 344.5,374C 345.46,370.27 345.793,366.437 345.5,362.5C 344.737,361.732 343.737,361.232 342.5,361C 346.152,360.501 349.818,360.335 353.5,360.5C 352.312,361.364 351.145,362.364 350,363.5C 349.501,367.486 349.334,371.486 349.5,375.5C 344.823,376.509 340.156,377.509 335.5,378.5C 324.094,377.425 318.094,371.092 317.5,359.5C 320.425,342.708 329.758,337.375 345.5,343.5C 346.265,342.388 347.265,341.721 348.5,341.5 Z"/></g>
<g><path style="opacity:1" fill="#6d6d69" d="M 348.5,341.5 C 349.809,345.351 349.809,349.351 348.5,353.5C 347.893,353.376 347.56,353.043 347.5,352.5C 348.482,349.038 348.815,345.371 348.5,341.5 Z"/></g>
<g><path style="opacity:1" fill="#e7e7df" d="M 424.5,340.5 C 428.487,340.284 432.32,340.951 436,342.5C 437.44,341.852 438.94,341.519 440.5,341.5C 440.5,345.167 440.5,348.833 440.5,352.5C 439.5,352.5 438.5,352.5 437.5,352.5C 436.375,343.418 431.708,341.085 423.5,345.5C 421.674,349.526 422.674,352.693 426.5,355C 431.242,357.12 435.742,359.62 440,362.5C 443.361,374.816 438.527,379.983 425.5,378C 423.919,377.293 422.419,376.46 421,375.5C 420.692,376.308 420.192,376.975 419.5,377.5C 418.167,374.167 418.167,370.833 419.5,367.5C 422.194,374.847 427.194,377.347 434.5,375C 438.5,371.333 438.5,367.667 434.5,364C 428.306,361.834 423.14,358.334 419,353.5C 417.571,347.7 419.404,343.367 424.5,340.5 Z"/></g>
<g><path style="opacity:1" fill="#f6f6ed" d="M 161.5,373.5 C 162.494,363.681 162.827,353.681 162.5,343.5C 161.167,343.5 159.833,343.5 158.5,343.5C 167.073,340.68 175.74,341.18 184.5,345C 192.019,351.964 193.519,360.13 189,369.5C 183.291,375.892 176.124,378.559 167.5,377.5C 164.5,377.167 161.5,376.833 158.5,376.5C 159.993,375.859 160.993,374.859 161.5,373.5 Z"/></g>
<g><path style="opacity:1" fill="#f0f0e7" d="M 215.5,357.5 C 218.625,358.479 221.958,358.813 225.5,358.5C 225.5,356.833 225.5,355.167 225.5,353.5C 226.787,354.871 227.453,356.705 227.5,359C 227.167,360.833 226.833,362.667 226.5,364.5C 225.772,362.807 224.772,361.307 223.5,360C 220.854,359.503 218.187,359.336 215.5,359.5C 215.5,364.833 215.5,370.167 215.5,375.5C 220.599,375.825 225.599,375.325 230.5,374C 231.402,371.798 232.402,369.632 233.5,367.5C 234.487,370.768 234.82,374.102 234.5,377.5C 225.475,377.832 216.475,377.498 207.5,376.5C 208.993,375.859 209.993,374.859 210.5,373.5C 211.494,363.681 211.827,353.681 211.5,343.5C 210.167,343.5 208.833,343.5 207.5,343.5C 215.433,341.532 223.766,340.865 232.5,341.5C 232.817,344.572 232.484,347.572 231.5,350.5C 230.961,347.834 229.628,345.667 227.5,344C 216.147,341.529 212.147,346.029 215.5,357.5 Z"/></g>
<g><path style="opacity:1" fill="#f4f4eb" d="M 293.5,373.5 C 294.494,363.681 294.827,353.681 294.5,343.5C 293.167,343.5 291.833,343.5 290.5,343.5C 291.871,342.213 293.705,341.547 296,341.5C 297.833,341.833 299.667,342.167 301.5,342.5C 300.758,343.287 299.925,343.953 299,344.5C 298.5,354.828 298.334,365.161 298.5,375.5C 299.675,375.281 300.675,375.614 301.5,376.5C 297.833,377.833 294.167,377.833 290.5,376.5C 291.77,375.712 292.77,374.712 293.5,373.5 Z"/></g>
<g><path style="opacity:1" fill="#f3f3ea" d="M 394.5,368.5 C 394.783,369.289 395.283,369.956 396,370.5C 396.5,361.506 396.666,352.506 396.5,343.5C 395.167,343.5 393.833,343.5 392.5,343.5C 393.694,342.223 395.36,341.556 397.5,341.5C 402.967,341.586 403.467,342.586 399,344.5C 398.5,355.828 398.333,367.162 398.5,378.5C 396.09,378.079 394.257,376.746 393,374.5C 386.949,366.622 381.115,358.622 375.5,350.5C 375.217,349.711 374.717,349.044 374,348.5C 373.176,357.676 373.343,366.676 374.5,375.5C 375.675,375.281 376.675,375.614 377.5,376.5C 374.5,377.833 371.5,377.833 368.5,376.5C 369.242,375.713 370.075,375.047 371,374.5C 371.5,364.172 371.666,353.839 371.5,343.5C 367.578,342.883 367.578,342.216 371.5,341.5C 373.374,341.39 374.874,342.056 376,343.5C 382.188,351.901 388.354,360.234 394.5,368.5 Z"/></g>
<g><path style="opacity:1" fill="#050505" d="M 167.5,343.5 C 181.999,343.165 188.166,350.165 186,364.5C 182.579,373.464 176.079,377.131 166.5,375.5C 166.191,364.752 166.524,354.085 167.5,343.5 Z"/></g>
<g><path style="opacity:1" fill="#a3a39d" d="M 290.5,343.5 C 291.833,343.5 293.167,343.5 294.5,343.5C 294.827,353.681 294.494,363.681 293.5,373.5C 293.5,363.833 293.5,354.167 293.5,344.5C 292.209,344.737 291.209,344.404 290.5,343.5 Z"/></g>
<g><path style="opacity:1" fill="#676763" d="M 158.5,343.5 C 159.833,343.5 161.167,343.5 162.5,343.5C 162.827,353.681 162.494,363.681 161.5,373.5C 161.5,363.833 161.5,354.167 161.5,344.5C 160.209,344.737 159.209,344.404 158.5,343.5 Z"/></g>
<g><path style="opacity:1" fill="#676763" d="M 207.5,343.5 C 208.833,343.5 210.167,343.5 211.5,343.5C 211.827,353.681 211.494,363.681 210.5,373.5C 210.5,363.833 210.5,354.167 210.5,344.5C 209.209,344.737 208.209,344.404 207.5,343.5 Z"/></g>
<g><path style="opacity:1" fill="#545451" d="M 392.5,343.5 C 393.833,343.5 395.167,343.5 396.5,343.5C 396.666,352.506 396.5,361.506 396,370.5C 395.283,369.956 394.783,369.289 394.5,368.5C 395.492,360.684 395.826,352.684 395.5,344.5C 394.209,344.737 393.209,344.404 392.5,343.5 Z"/></g>
<g><path style="opacity:1" fill="#9a9a95" d="M 225.5,353.5 C 225.5,355.167 225.5,356.833 225.5,358.5C 221.958,358.813 218.625,358.479 215.5,357.5C 218.5,357.5 221.5,357.5 224.5,357.5C 224.232,355.901 224.566,354.568 225.5,353.5 Z"/></g>
<g><path style="opacity:1" fill="#7e7e7a" d="M 353.5,360.5 C 349.818,360.335 346.152,360.501 342.5,361C 343.737,361.232 344.737,361.732 345.5,362.5C 344.167,362.5 342.833,362.5 341.5,362.5C 341.5,361.5 341.5,360.5 341.5,359.5C 345.702,359.183 349.702,359.517 353.5,360.5 Z"/></g>
<g><path style="opacity:1" fill="#676763" d="M 375.5,350.5 C 374.507,358.65 374.174,366.983 374.5,375.5C 373.343,366.676 373.176,357.676 374,348.5C 374.717,349.044 375.217,349.711 375.5,350.5 Z"/></g>
</svg>
