<?xml version="1.0" standalone="no"?>
<!DOCTYPE svg PUBLIC "-//W3C//DTD SVG 20010904//EN"
 "http://www.w3.org/TR/2001/REC-SVG-20010904/DTD/svg10.dtd">
<svg version="1.0" xmlns="http://www.w3.org/2000/svg"
 width="500.000000pt" height="500.000000pt" viewBox="0 0 500.000000 500.000000"
 preserveAspectRatio="xMidYMid meet">

<g transform="translate(0.000000,500.000000) scale(0.100000,-0.100000)"
fill="#000000" stroke="none">
<path d="M0 2500 l0 -2500 2500 0 2500 0 0 2500 0 2500 -2500 0 -2500 0 0
-2500z m1725 570 c-3 -5 -22 -10 -41 -10 -27 0 -34 -4 -34 -20 0 -16 7 -20 35
-20 19 0 35 -4 35 -10 0 -5 -16 -10 -35 -10 -31 0 -35 -3 -35 -25 0 -22 4 -25
40 -25 22 0 40 -4 40 -10 0 -5 -20 -10 -45 -10 l-45 0 0 75 0 75 46 0 c27 0
43 -4 39 -10z m206 -11 c26 -26 16 -39 -11 -14 -41 37 -100 13 -100 -41 0 -49
64 -72 102 -37 26 23 34 9 9 -16 -31 -31 -84 -28 -110 5 -12 15 -21 37 -21 49
0 12 9 34 21 49 26 33 79 36 110 5z m119 -44 l0 -65 35 0 c19 0 35 -4 35 -10
0 -5 -20 -10 -45 -10 l-45 0 0 75 c0 43 4 75 10 75 6 0 10 -28 10 -65z m240
55 c0 -5 -16 -10 -35 -10 -28 0 -35 -4 -35 -20 0 -15 7 -20 29 -20 17 0 33 -4
36 -10 4 -6 -8 -10 -29 -10 -32 0 -36 -3 -36 -25 0 -22 4 -25 35 -25 19 0 35
-4 35 -10 0 -5 -20 -10 -45 -10 l-45 0 0 75 0 75 45 0 c25 0 45 -4 45 -10z
m205 -10 c10 -11 15 -23 12 -27 -4 -4 -13 2 -20 11 -17 23 -63 24 -84 3 -19
-18 -20 -61 -3 -82 16 -20 64 -19 85 1 9 9 19 13 23 9 12 -12 -39 -45 -69 -45
-40 0 -69 32 -69 75 0 22 8 43 20 55 26 26 81 26 105 0z m205 10 c0 -5 -11
-10 -25 -10 -24 0 -25 -2 -25 -65 0 -37 -4 -65 -10 -65 -6 0 -10 28 -10 65 0
58 -2 65 -19 65 -11 0 -23 5 -26 10 -4 6 17 10 54 10 34 0 61 -4 61 -10z m100
-65 c0 -43 -4 -75 -10 -75 -6 0 -10 32 -10 75 0 43 4 75 10 75 6 0 10 -32 10
-75z m202 58 c10 -9 18 -21 18 -26 0 -6 -9 -2 -20 8 -23 20 -63 23 -85 5 -18
-15 -20 -71 -3 -88 17 -17 73 -15 88 3 7 8 17 15 23 15 6 0 0 -11 -13 -25 -47
-50 -130 -18 -130 50 0 63 76 99 122 58z m-372 -293 c0 -6 -25 -9 -57 -8 l-58
1 50 7 c28 4 53 8 58 8 4 1 7 -2 7 -8z m-483 -128 c54 -28 117 -94 146 -152
16 -33 23 -70 27 -139 l5 -94 55 -12 c100 -20 174 -76 219 -167 31 -61 31 -61
29 -217 l-2 -156 -5 155 c-5 130 -10 163 -27 201 -41 89 -134 159 -232 174
l-42 7 2 -381 c2 -261 0 -381 -7 -381 -7 0 -9 15 -7 36 4 34 3 36 -17 31 -11
-3 -19 -1 -15 4 3 5 11 9 19 9 11 0 13 38 13 206 l-1 206 -30 18 c-17 11 -35
16 -40 13 -6 -3 -7 -1 -3 6 6 9 17 7 42 -8 34 -21 45 -16 22 8 -10 11 -10 13
0 7 8 -5 12 3 12 28 0 22 -5 36 -12 37 -9 0 -9 2 1 6 11 5 11 7 0 14 -10 6
-11 9 -1 9 6 0 12 6 12 14 0 9 -16 17 -42 22 -34 5 -39 8 -23 14 11 4 22 3 23
-1 8 -20 31 -7 37 21 10 45 -6 59 -55 50 -49 -9 -66 -21 -22 -16 19 2 29 -1
25 -6 -3 -6 -21 -8 -39 -5 -22 4 -39 1 -48 -9 -8 -8 -21 -14 -28 -14 -10 0 -9
-3 2 -11 12 -8 11 -9 -5 -7 -16 2 -20 -2 -19 -25 1 -22 -1 -25 -13 -15 -11 9
-18 7 -31 -6 -16 -17 -16 -18 8 -12 14 3 19 3 11 0 -10 -5 -6 -11 15 -21 16
-7 21 -11 11 -8 -67 19 -64 20 -85 -37 -14 -37 -17 -57 -10 -65 7 -9 7 -17 0
-25 -12 -15 -14 -251 -2 -243 9 6 8 -14 -2 -30 -3 -5 -6 -31 -6 -57 -1 -43 1
-48 21 -49 21 -1 21 -1 -3 -9 -25 -8 -25 -8 5 -11 l30 -2 -29 -4 c-25 -4 -28
-8 -24 -34 3 -17 0 -29 -6 -29 -8 0 -10 81 -6 272 5 260 6 275 28 320 46 92
168 178 254 178 28 0 28 0 28 68 0 171 -88 296 -233 333 -106 26 -233 -14
-306 -97 -54 -61 -71 -117 -71 -230 l0 -91 38 -6 c51 -9 126 -58 157 -105 37
-56 52 -140 37 -200 -25 -95 -109 -178 -190 -189 l-42 -6 0 -123 c0 -76 -4
-124 -10 -124 -6 0 -10 46 -10 119 l0 119 -50 12 c-139 33 -225 177 -186 311
9 32 31 73 53 98 37 44 119 91 159 91 20 0 22 6 26 104 4 87 9 113 32 160 31
64 110 138 171 161 61 22 208 15 262 -13z m703 -197 c0 -8 -4 -15 -10 -15 -5
0 -7 7 -4 15 4 8 8 15 10 15 2 0 4 -7 4 -15z m-260 -75 c14 -22 28 -40 31 -40
4 0 18 18 33 40 14 22 31 40 36 40 6 0 10 -32 10 -75 0 -43 -4 -75 -10 -75 -6
0 -10 26 -10 57 l0 58 -25 -38 c-14 -20 -30 -37 -35 -37 -4 0 -19 17 -32 38
l-23 37 -3 -57 c-4 -85 -22 -71 -22 17 0 88 12 96 50 35z m290 30 c0 -5 -16
-10 -35 -10 -28 0 -35 -4 -35 -20 0 -15 7 -20 29 -20 17 0 33 -4 36 -10 4 -6
-8 -10 -29 -10 -32 0 -36 -3 -36 -25 0 -22 4 -25 35 -25 19 0 35 -4 35 -10 0
-5 -20 -10 -45 -10 l-45 0 0 75 0 75 45 0 c25 0 45 -4 45 -10z m100 -55 l0
-65 40 0 c22 0 40 -4 40 -10 0 -5 -22 -10 -50 -10 l-50 0 0 75 c0 43 4 75 10
75 6 0 10 -28 10 -65z m243 -3 c30 -76 31 -82 17 -82 -5 0 -10 7 -10 15 0 11
-12 15 -45 15 -33 0 -45 -4 -45 -15 0 -8 -4 -15 -10 -15 -5 0 -10 3 -10 8 0
19 56 142 65 142 6 0 22 -31 38 -68z m163 11 l39 -57 3 57 c4 84 22 69 22 -19
0 -90 -8 -92 -62 -14 l-38 53 0 -56 c0 -31 -4 -57 -10 -57 -6 0 -10 32 -10 75
0 41 4 75 8 75 5 0 26 -26 48 -57z m268 41 c22 -22 20 -41 -2 -21 -22 20 -73
22 -90 5 -15 -15 -16 -53 -2 -79 15 -27 75 -26 90 1 10 18 8 20 -20 20 -16 0
-30 5 -30 10 0 6 18 10 40 10 46 0 51 -13 19 -54 -42 -53 -129 -19 -129 51 0
20 8 41 20 53 24 24 82 27 104 4z m196 6 c0 -5 -16 -10 -35 -10 -28 0 -35 -4
-35 -20 0 -15 7 -20 29 -20 17 0 33 -4 36 -10 4 -6 -8 -10 -29 -10 -32 0 -36
-3 -36 -25 0 -22 4 -25 35 -25 19 0 35 -4 35 -10 0 -5 -20 -10 -45 -10 l-45 0
0 75 0 75 45 0 c25 0 45 -4 45 -10z m-1557 -195 c4 -8 2 -17 -3 -20 -6 -4 -10
3 -10 14 0 25 6 27 13 6z m-96 -51 c-3 -3 -12 -4 -19 -1 -8 3 -5 6 6 6 11 1
17 -2 13 -5z m-2 -21 c-36 -5 -50 -17 -40 -33 6 -9 10 -8 17 4 5 9 20 15 36
15 27 -1 27 -1 -3 -8 -29 -6 -29 -7 -10 -19 19 -12 19 -13 -4 -6 -19 5 -23 3
-18 -10 3 -8 1 -18 -6 -22 -7 -4 -9 -3 -4 1 4 5 0 19 -9 32 -20 32 -3 54 40
52 l31 -2 -30 -4z m82 -9 c-3 -3 -12 -4 -19 -1 -8 3 -5 6 6 6 11 1 17 -2 13
-5z m1273 -44 c0 -12 -30 -12 -85 -1 -38 8 -37 9 23 10 35 1 62 -3 62 -9z
m-1294 -16 c18 -14 18 -14 -6 -3 -31 14 -36 19 -24 19 6 0 19 -7 30 -16z
m-153 -11 c-7 -2 -19 -2 -25 0 -7 3 -2 5 12 5 14 0 19 -2 13 -5z m32 -13 c-11
-5 -29 -8 -40 -8 -16 0 -15 2 5 8 34 11 60 11 35 0z m70 1 c3 -5 0 -13 -6 -17
-8 -4 -9 -3 -5 4 9 14 -4 15 -24 2 -12 -8 -12 -10 -1 -10 8 0 12 -2 10 -5 -3
-2 -15 -1 -28 2 -23 6 -23 6 5 19 36 16 41 16 49 5z m-135 -35 c0 -2 -7 -7
-16 -10 -8 -3 -12 -2 -9 4 6 10 25 14 25 6z m22 -23 c-12 -2 -20 -9 -16 -14 3
-5 11 -6 17 -2 7 3 3 -3 -7 -15 -15 -17 -22 -19 -33 -11 -7 6 -13 16 -13 22 0
6 6 3 13 -8 9 -11 16 -14 21 -7 3 6 2 13 -4 17 -16 10 -1 25 23 24 22 -2 22
-2 -1 -6z m133 -13 c3 -6 -1 -7 -9 -4 -18 7 -21 14 -7 14 6 0 13 -4 16 -10z
m72 -15 c0 -8 -4 -12 -9 -9 -5 3 -6 10 -3 15 9 13 12 11 12 -6z m-36 -22 c13
-16 12 -17 -3 -4 -10 7 -18 15 -18 17 0 8 8 3 21 -13z m-16 -33 c-3 -4 -1 -10
4 -12 6 -2 7 -33 3 -80 -5 -43 -4 -78 1 -78 4 0 5 -4 2 -10 -3 -5 -2 -10 4
-10 17 0 33 -38 19 -46 -7 -4 -8 -3 -4 4 4 7 3 12 -3 12 -6 0 -17 12 -26 28
-10 18 -14 20 -11 7 3 -11 1 -38 -4 -60 -6 -29 -7 -21 -3 30 4 39 6 91 6 118
0 26 4 47 9 47 5 0 7 4 4 8 -10 17 -15 62 -5 57 5 -4 7 -10 4 -15z m-66 7 c-2
-1 -15 -11 -29 -22 l-25 -20 19 23 c11 12 24 22 29 22 6 0 8 -1 6 -3z m-28
-64 c-12 -20 -14 -14 -5 12 4 9 9 14 11 11 3 -2 0 -13 -6 -23z m-24 -20 c-3
-10 -5 -4 -5 12 0 17 2 24 5 18 2 -7 2 -21 0 -30z m79 -29 c-3 -8 -10 -13 -15
-10 -5 3 -14 -1 -21 -9 -7 -8 -17 -12 -22 -9 -5 3 -2 14 8 25 13 14 20 16 31
8 10 -9 13 -6 14 12 0 13 3 18 6 11 3 -7 2 -20 -1 -28z m-110 -26 c4 -6 3 -8
-4 -4 -6 3 -15 -2 -21 -11 -6 -10 -11 -13 -11 -7 0 9 19 34 26 34 2 0 6 -5 10
-12z m104 -33 c-12 -15 -41 -14 -40 1 0 5 4 9 9 9 5 0 13 3 17 7 12 13 26 -3
14 -17z m-62 6 c2 -1 0 -7 -5 -13 -13 -22 -12 -40 3 -34 11 4 12 2 1 -14 -6
-11 -16 -20 -22 -20 -5 0 -3 -5 5 -10 8 -5 10 -10 4 -10 -5 0 -19 7 -30 15
-14 11 -15 14 -3 9 24 -8 32 11 13 30 -8 9 -11 16 -5 16 5 0 8 9 6 19 -3 17 2
19 33 12z m-62 -43 c4 -7 4 -10 -1 -6 -4 4 -15 2 -24 -5 -14 -11 -14 -10 -2 6
16 20 18 21 27 5z m137 -13 c-3 -9 -8 -14 -10 -11 -3 3 -2 9 2 15 9 16 15 13
8 -4z m-26 -17 c-3 -8 -6 -5 -6 6 -1 11 2 17 5 13 3 -3 4 -12 1 -19z m378 -3
c51 -51 13 -125 -65 -125 l-40 0 0 75 0 75 40 0 c30 0 47 -7 65 -25z m195 15
c0 -5 -16 -10 -35 -10 -28 0 -35 -4 -35 -20 0 -15 7 -20 29 -20 17 0 33 -4 36
-10 4 -6 -8 -10 -29 -10 -32 0 -36 -3 -36 -25 0 -22 4 -25 35 -25 19 0 35 -4
35 -10 0 -5 -20 -10 -45 -10 l-45 0 0 75 0 75 45 0 c25 0 45 -4 45 -10z m164
4 c9 -3 16 -13 16 -20 0 -12 -4 -12 -24 1 -13 8 -31 13 -40 9 -28 -11 -17 -35
24 -51 66 -26 63 -83 -4 -83 -35 0 -56 15 -56 40 1 13 2 13 13 -1 16 -22 39
-28 60 -17 28 14 20 27 -28 48 -46 20 -58 43 -33 68 13 13 47 16 72 6z m126
-69 c0 -43 -4 -75 -10 -75 -6 0 -10 32 -10 75 0 43 4 75 10 75 6 0 10 -32 10
-75z m201 65 c10 -6 19 -18 19 -27 0 -14 -2 -14 -20 2 -25 23 -70 23 -87 -1
-18 -24 -16 -59 3 -78 18 -19 65 -21 82 -4 19 19 14 28 -12 28 -14 0 -28 5
-31 10 -4 6 10 10 34 10 34 0 41 -3 41 -20 0 -31 -36 -60 -74 -60 -39 0 -76
37 -76 75 0 12 9 34 21 49 22 28 64 35 100 16z m174 -48 l40 -57 6 60 6 60 1
-77 c1 -43 -1 -78 -5 -78 -5 1 -26 26 -48 58 l-40 57 -6 -60 -6 -60 -1 78 c-1
42 1 77 6 77 4 -1 25 -26 47 -58z m229 52 c9 -3 16 -13 16 -20 0 -12 -4 -12
-24 1 -13 8 -31 13 -40 9 -28 -11 -17 -35 24 -51 66 -26 63 -83 -4 -83 -35 0
-56 15 -56 40 1 13 2 13 13 -1 16 -22 39 -28 60 -17 28 14 20 27 -28 48 -46
20 -58 43 -33 68 13 13 47 16 72 6z m-1591 -41 c-7 -2 -21 -2 -30 0 -10 3 -4
5 12 5 17 0 24 -2 18 -5z m122 -22 c-3 -2 -16 -6 -28 -8 -15 -2 -18 0 -9 5 14
9 45 12 37 3z m5 -27 c-8 -8 -23 -20 -34 -25 -13 -7 -9 -1 9 15 34 29 43 33
25 10z m-105 -4 c3 -6 -1 -7 -9 -4 -18 7 -21 14 -7 14 6 0 13 -4 16 -10z m210
-10 c-3 -5 -12 -10 -18 -10 -7 0 -6 4 3 10 19 12 23 12 15 0z m-125 -65 c-7
-8 -18 -15 -24 -15 -6 0 -2 7 8 15 25 19 32 19 16 0z m-43 -27 c-3 -7 -5 -2
-5 12 0 14 2 19 5 13 2 -7 2 -19 0 -25z m-62 2 c-3 -5 -12 -10 -18 -10 -7 0
-6 4 3 10 19 12 23 12 15 0z m193 -7 c-10 -2 -26 -2 -35 0 -10 3 -2 5 17 5 19
0 27 -2 18 -5z m1292 -123 c0 -6 -27 -9 -62 -9 -54 1 -58 3 -28 9 53 11 90 11
90 0z"/>
<path d="M1645 2213 c-84 -19 -163 -91 -185 -168 -15 -52 -8 -130 15 -178 18
-38 62 -84 85 -89 8 -2 21 -9 29 -16 8 -8 22 -11 33 -9 10 3 16 1 12 -4 -3 -5
6 -9 19 -9 l24 0 0 240 c0 132 -3 239 -6 239 -3 -1 -15 -3 -26 -6z"/>
<path d="M1700 1978 l0 -240 33 7 c51 10 119 57 152 104 26 37 30 53 33 119 2
69 0 82 -25 127 -32 57 -90 100 -150 114 l-43 9 0 -240z"/>
<path d="M3172 2355 c-17 -38 -15 -45 14 -45 22 0 24 3 18 23 -13 45 -20 49
-32 22z"/>
<path d="M2159 1783 c-13 -16 -12 -17 4 -4 9 7 17 15 17 17 0 8 -8 3 -21 -13z"/>
<path d="M2480 1615 c0 -54 1 -55 28 -55 52 0 81 59 46 94 -8 9 -29 16 -45 16
-29 0 -29 -1 -29 -55z"/>
</g>
</svg>
