<svg id="visual" viewBox="0 0 900 300" width="900" height="300" xmlns="http://www.w3.org/2000/svg"
    xmlns:xlink="http://www.w3.org/1999/xlink" version="1.1">
    <rect x="0" y="0" width="900" height="300" fill="#000000"></rect>
    <g transform="translate(453.01196718915753 158.1205282575116)">
        <path
            d="M58.8 -90.2C83.7 -87.6 116.3 -86.8 124 -72.1C131.6 -57.3 114.3 -28.7 104.6 -5.6C95 17.5 93 35 84 47.4C75 59.8 59 67.2 43.8 73.9C28.7 80.7 14.3 86.8 -4.7 95.1C-23.8 103.3 -47.7 113.6 -74.7 113.7C-101.8 113.8 -132.1 103.8 -131.9 83.1C-131.7 62.5 -101 31.3 -96.5 2.6C-91.9 -26 -113.5 -52 -116.1 -76.8C-118.7 -101.7 -102.4 -125.3 -79.8 -129.3C-57.3 -133.3 -28.7 -117.7 -5.8 -107.5C17 -97.4 34 -92.9 58.8 -90.2"
            fill="#f8e1b7"></path>
    </g>
</svg>