<svg id="visual" viewBox="0 0 900 698.25" width="900" height="698.25" xmlns="http://www.w3.org/2000/svg" xmlns:xlink="http://www.w3.org/1999/xlink" version="1.1"><rect x="0" y="0" width="900" height="698.25" fill="#000000"></rect><defs><linearGradient id="grad1_0" x1="22.4%" y1="0%" x2="100%" y2="100%"><stop offset="24.22126745435016%" stop-color="#000000" stop-opacity="1"></stop><stop offset="75.77873254564983%" stop-color="#000000" stop-opacity="1"></stop></linearGradient></defs><defs><linearGradient id="grad2_0" x1="0%" y1="0%" x2="77.6%" y2="100%"><stop offset="24.22126745435016%" stop-color="#000000" stop-opacity="1"></stop><stop offset="75.77873254564983%" stop-color="#000000" stop-opacity="1"></stop></linearGradient></defs><g transform="translate(900, 0)"><path d="M0 284.8C-25.6 269 -51.2 253.2 -79.1 243.5C-107 233.8 -137.3 230.2 -154.6 212.8C-171.9 195.4 -176.2 164.1 -196.6 142.8C-217 121.5 -253.5 110.2 -270.8 88C-288.2 65.8 -286.5 32.9 -284.8 0L0 0Z" fill="#f8e1b7"></path></g><g transform="translate(0, 698.25)"><path d="M0 -284.8C22.6 -261.2 45.1 -237.5 75.7 -233C106.3 -228.5 144.8 -243 167.4 -230.4C189.9 -217.7 196.5 -177.9 203.9 -148.1C211.2 -118.4 219.4 -98.7 233 -75.7C246.6 -52.7 265.7 -26.4 284.8 0L0 0Z" fill="#f8e1b7"></path></g></svg>