<svg id="visual" viewBox="0 0 900 300" width="900" height="300" xmlns="http://www.w3.org/2000/svg"
    xmlns:xlink="http://www.w3.org/1999/xlink" version="1.1">
    <rect x="0" y="0" width="900" height="300" fill="#000000"></rect>
    <g transform="translate(447.0798143082366 161.7531491517436)">
        <path
            d="M72.8 -128.5C92.3 -114.9 104.6 -91.2 122.5 -68.1C140.4 -45 164 -22.5 170.2 3.6C176.4 29.7 165.3 59.3 147 81.8C128.8 104.4 103.4 119.7 77.7 124.4C52 129.1 26 123.2 2.2 119.4C-21.7 115.7 -43.3 114.1 -68.7 109.3C-94.1 104.4 -123.3 96.2 -141.9 77.4C-160.6 58.7 -168.8 29.3 -165.3 2C-161.9 -25.3 -146.8 -50.7 -132 -76.2C-117.3 -101.8 -102.9 -127.5 -80.9 -139.7C-59 -151.9 -29.5 -150.4 -1.4 -148C26.7 -145.5 53.3 -142 72.8 -128.5"
            fill="#f8e1b7"></path>
    </g>
</svg>