<?xml version="1.0" encoding="UTF-8"?>
<svg xmlns="http://www.w3.org/2000/svg" xmlns:xlink="http://www.w3.org/1999/xlink" width="2501" height="2501" viewBox="0 0 2501 2501">
<path fill-rule="nonzero" fill="rgb(30.200195%, 30.200195%, 30.200195%)" fill-opacity="1" d="M 1652.871094 1189.699219 C 1682.460938 1189.699219 1709.351562 1201.789062 1728.828125 1221.269531 C 1748.308594 1240.75 1760.410156 1267.640625 1760.410156 1297.230469 L 1760.410156 1577.96875 C 1760.921875 1579.75 1761.191406 1581.632812 1761.191406 1583.578125 L 1761.191406 1585.605469 C 1761.191406 1711.285156 1709.789062 1825.523438 1626.980469 1908.335938 C 1544.171875 1991.144531 1429.929688 2042.542969 1304.261719 2042.542969 C 1197.898438 2042.542969 1099.671875 2005.640625 1021.738281 1943.992188 C 883.019531 1834.265625 821.519531 1591.828125 757.492188 1424.800781 C 745.175781 1392.671875 747.136719 1358.390625 760.222656 1329.03125 C 773.304688 1299.691406 797.515625 1275.300781 829.703125 1262.960938 L 829.722656 1262.960938 C 861.847656 1250.648438 896.128906 1252.609375 925.480469 1265.691406 C 954.824219 1278.769531 979.207031 1302.988281 991.546875 1335.179688 L 1020.628906 1411.03125 C 1018.21875 1219.808594 1021.96875 1036.828125 1021.96875 846.800781 C 1021.96875 817.199219 1034.058594 790.308594 1053.539062 770.828125 C 1073.03125 751.351562 1099.910156 739.261719 1129.511719 739.261719 C 1159.101562 739.261719 1185.988281 751.351562 1205.46875 770.828125 C 1224.949219 790.308594 1237.039062 817.199219 1237.039062 846.800781 L 1237.039062 1057.269531 C 1255.429688 1042.589844 1278.710938 1033.789062 1303.960938 1033.789062 C 1333.558594 1033.789062 1360.441406 1045.878906 1379.921875 1065.359375 C 1392.238281 1077.671875 1401.601562 1092.941406 1406.820312 1109.988281 C 1425.859375 1092.898438 1450.988281 1082.46875 1478.421875 1082.46875 C 1508.011719 1082.46875 1534.898438 1094.558594 1554.378906 1114.039062 C 1573.859375 1133.519531 1585.949219 1160.410156 1585.949219 1190 L 1585.949219 1213.179688 C 1604.339844 1198.5 1627.621094 1189.699219 1652.871094 1189.699219 Z M 1591.808594 1523.796875 C 1592.03125 1534.964844 1583.148438 1544.199219 1571.980469 1544.421875 C 1560.808594 1544.640625 1551.570312 1535.761719 1551.351562 1524.589844 C 1548.738281 1411.859375 1545.328125 1301.839844 1545.328125 1190 C 1545.328125 1171.621094 1537.800781 1154.898438 1525.660156 1142.761719 C 1513.519531 1130.621094 1496.800781 1123.089844 1478.421875 1123.089844 C 1459.988281 1123.089844 1443.238281 1130.621094 1431.109375 1142.75 C 1413.871094 1159.96875 1411.578125 1175.710938 1411.941406 1198.308594 L 1416.691406 1499.550781 C 1416.871094 1510.722656 1407.949219 1519.921875 1396.78125 1520.097656 C 1385.609375 1520.273438 1376.410156 1511.355469 1376.230469 1500.191406 C 1374.429688 1385.828125 1371.179688 1271.121094 1370.898438 1157.171875 C 1370.839844 1131.960938 1370.890625 1113.761719 1351.210938 1094.078125 C 1339.070312 1081.941406 1322.339844 1074.398438 1303.960938 1074.398438 C 1285.578125 1074.398438 1268.851562 1081.941406 1256.71875 1094.078125 C 1236.710938 1114.078125 1235.808594 1136.339844 1236.121094 1161.238281 L 1240.679688 1523.953125 C 1240.808594 1535.125 1231.859375 1544.289062 1220.691406 1544.421875 C 1209.519531 1544.550781 1200.351562 1535.601562 1200.21875 1524.429688 C 1197.371094 1297.398438 1196.429688 1073.449219 1196.429688 846.800781 C 1196.429688 828.410156 1188.890625 811.691406 1176.75 799.550781 C 1164.609375 787.410156 1147.890625 779.878906 1129.511719 779.878906 C 1111.128906 779.878906 1094.398438 787.410156 1082.261719 799.550781 C 1070.121094 811.691406 1062.589844 828.410156 1062.589844 846.800781 L 1062.589844 1524.191406 L 1062.570312 1524.191406 C 1062.570312 1532.367188 1057.589844 1540.070312 1049.5 1543.152344 C 1039.03125 1547.136719 1027.308594 1541.882812 1023.320312 1531.410156 L 953.628906 1349.609375 C 945.289062 1327.859375 928.8125 1311.5 908.976562 1302.660156 C 889.421875 1293.941406 866.5625 1292.558594 845.007812 1300.558594 C 844.464844 1300.789062 843.90625 1301.011719 843.339844 1301.191406 C 821.992188 1309.628906 805.921875 1325.941406 797.191406 1345.53125 C 788.355469 1365.351562 787.050781 1388.558594 795.410156 1410.371094 C 853.925781 1563.003906 915.074219 1808.0625 1046.808594 1912.257812 C 1117.71875 1968.347656 1207.21875 2001.925781 1304.261719 2001.925781 C 1418.71875 2001.925781 1522.800781 1955.082031 1598.269531 1879.617188 C 1672.960938 1804.921875 1719.609375 1702.191406 1720.550781 1589.105469 C 1720.058594 1587.347656 1719.789062 1585.492188 1719.789062 1583.578125 L 1719.789062 1297.230469 C 1719.789062 1278.851562 1712.25 1262.121094 1700.121094 1249.988281 C 1687.980469 1237.851562 1671.25 1230.308594 1652.871094 1230.308594 C 1634.488281 1230.308594 1617.761719 1237.851562 1605.621094 1249.988281 C 1584.441406 1271.171875 1586.328125 1287.839844 1586.921875 1313.058594 L 1591.808594 1523.796875 "/>
<path fill-rule="nonzero" fill="rgb(30.200195%, 30.200195%, 30.200195%)" fill-opacity="1" d="M 1153.671875 690.609375 C 1153.929688 701.78125 1145.089844 711.050781 1133.921875 711.308594 C 1122.75 711.570312 1113.480469 702.730469 1113.210938 691.558594 L 1107.941406 478.488281 C 1107.679688 467.320312 1116.519531 458.050781 1127.691406 457.78125 C 1138.871094 457.519531 1148.140625 466.359375 1148.398438 477.539062 L 1153.671875 690.609375 "/>
<path fill-rule="nonzero" fill="rgb(30.200195%, 30.200195%, 30.200195%)" fill-opacity="1" d="M 1072.351562 699.421875 C 1078.179688 708.980469 1075.160156 721.441406 1065.609375 727.269531 C 1056.058594 733.101562 1043.589844 730.078125 1037.769531 720.53125 L 926.664062 538.640625 C 920.835938 529.089844 923.855469 516.621094 933.40625 510.789062 C 942.957031 504.96875 955.425781 507.988281 961.25 517.539062 L 1072.351562 699.421875 "/>
<path fill-rule="nonzero" fill="rgb(30.200195%, 30.200195%, 30.200195%)" fill-opacity="1" d="M 1006.300781 747.761719 C 1016.121094 753.109375 1019.738281 765.390625 1014.390625 775.210938 C 1009.050781 785.019531 996.757812 788.640625 986.945312 783.300781 L 799.785156 681.328125 C 789.96875 675.988281 786.347656 663.699219 791.691406 653.878906 C 797.035156 644.070312 809.328125 640.449219 819.140625 645.789062 L 1006.300781 747.761719 "/>
<path fill-rule="nonzero" fill="rgb(30.200195%, 30.200195%, 30.200195%)" fill-opacity="1" d="M 973.316406 822.628906 C 984.488281 822.371094 993.757812 831.210938 994.023438 842.378906 C 994.285156 853.558594 985.441406 862.828125 974.269531 863.089844 L 761.199219 868.359375 C 750.027344 868.621094 740.757812 859.78125 740.492188 848.609375 C 740.230469 837.441406 749.074219 828.171875 760.246094 827.898438 L 973.316406 822.628906 "/>
<path fill-rule="nonzero" fill="rgb(30.200195%, 30.200195%, 30.200195%)" fill-opacity="1" d="M 1285.699219 870.960938 C 1274.519531 871.21875 1265.25 862.378906 1264.988281 851.210938 C 1264.730469 840.039062 1273.570312 830.769531 1284.738281 830.5 L 1497.808594 825.230469 C 1508.988281 824.96875 1518.261719 833.808594 1518.519531 844.980469 C 1518.78125 856.148438 1509.941406 865.421875 1498.769531 865.691406 L 1285.699219 870.960938 "/>
<path fill-rule="nonzero" fill="rgb(30.200195%, 30.200195%, 30.200195%)" fill-opacity="1" d="M 1276.878906 789.640625 C 1267.328125 795.46875 1254.859375 792.449219 1249.03125 782.898438 C 1243.210938 773.351562 1246.230469 760.878906 1255.78125 755.050781 L 1437.660156 643.949219 C 1447.210938 638.128906 1459.679688 641.140625 1465.511719 650.691406 C 1471.328125 660.25 1468.320312 672.710938 1458.769531 678.539062 L 1276.878906 789.640625 "/>
<path fill-rule="nonzero" fill="rgb(30.200195%, 30.200195%, 30.200195%)" fill-opacity="1" d="M 1228.539062 723.589844 C 1223.199219 733.398438 1210.910156 737.03125 1201.089844 731.679688 C 1191.28125 726.339844 1187.660156 714.050781 1193 704.230469 L 1294.96875 517.070312 C 1300.320312 507.261719 1312.609375 503.640625 1322.421875 508.980469 C 1332.230469 514.328125 1335.859375 526.621094 1330.511719 536.429688 L 1228.539062 723.589844 "/>
</svg>
