<svg id="visual" viewBox="0 0 900 100" width="900" height="100" xmlns="http://www.w3.org/2000/svg"
    xmlns:xlink="http://www.w3.org/1999/xlink" version="1.1">
    <rect x="0" y="0" width="900" height="100" fill="#000000"></rect>
    <path
        d="M0 60L15 61C30 62 60 64 90 68.2C120 72.3 150 78.7 180 69.8C210 61 240 37 270 32.2C300 27.3 330 41.7 360 53.3C390 65 420 74 450 68C480 62 510 41 540 32.7C570 24.3 600 28.7 630 39.3C660 50 690 67 720 73C750 79 780 74 810 70.2C840 66.3 870 63.7 885 62.3L900 61L900 101L885 101C870 101 840 101 810 101C780 101 750 101 720 101C690 101 660 101 630 101C600 101 570 101 540 101C510 101 480 101 450 101C420 101 390 101 360 101C330 101 300 101 270 101C240 101 210 101 180 101C150 101 120 101 90 101C60 101 30 101 15 101L0 101Z"
        fill="#F8E1B7" stroke-linecap="round" stroke-linejoin="miter"></path>
</svg>